# xmcd
#
# Track frame offsets: 
#        150
#        11359
#        27276
#        42235
#        56767
#        73127
#        85888
#        120596
#        142713
#        153557
#        182709
#        194742
#        211591
#        229286
#        259131
#        276163
#
# Disc length: 3843 seconds
#
# Revision: 4
# Processed by: cddbd v1.5PL3 Copyright (c) Steve Scherf et al.
# Submitted via: ExactAudioCopy v0.95a5
#
DISCID=e10f0110
DTITLE=Various Artist - Funiculi Funicula 20 CD 1
DYEAR=2001
DGENRE=Classical
TTITLE0=G. Capaldo-S. Gambardella (R. Van Campenhout and W. Van de Velde
TTITLE0=) - Comme Facette Mammeta
TTITLE1=Janu M. - Between Scheldt And Lys
TTITLE2=J.S. Bach (The Swingle Singers) - Aria Uit Suite Nr. 3 In D
TTITLE3=J.S. Bach (Chamber Orchestra Of Europ) - Presto Uit Concerto I
TTITLE3=n F BWV 1056
TTITLE4=W.A. Mozart (Yuli Lavrénov) - Sonate KV 311 Alla Turca
TTITLE5=H. Arien-E.Y. Harburg (I Salonisti) - Over The Rainbow (Uit "T
TTITLE5=he Wizard Of Oz")
TTITLE6=L. Van Beethoven (The London Symphony Orchestra) - Adagio Uit 
TTITLE6=Concerto Voor Piano En Orkest Nr. 5 "The Emperor"
TTITLE7=W.A. Mozart (The Kosice Teacher's Choir) - Laudate Dominum
TTITLE8=Fr. Lehár (The English Chamber Orchestra) - Vija-Lied
TTITLE9=A. Ketelbey (The Ambrosian Chorus and The London Promenade Orche
TTITLE9=stra) - In The Mystic Land Of Egypt
TTITLE10=J. Hellmesberger (Göttingen Symphony Orchestra) - Valse Espag
TTITLE10=nol
TTITLE11=L. Bacalov (The Pittsburg Symphony Orchestra) - Thema Uit De 
TTITLE11=Film "Il Postino"
TTITLE12=G. Verdi (Orchestra Del Teatro All Scala) - A Toi J'ai Chérie
TTITLE12=Uit "Les Vêpres Siciliennes"
TTITLE13=J. Rodrigo (J. Vandecaveye-L. Langenbick) - Adagio Uit "Conce
TTITLE13=rto De Aranguez"
TTITLE14=A. Vivaldi (Franz Liszt Chamber Orchestra) - Largo Uit "Conce
TTITLE14=rto Voor Hobo, Strijkers En Basso Continuo Nr. 13 A RV 463"
TTITLE15=E. Satie (Kathleen De Vylder) - Gymnopédie Nr. 1
EXTD=
EXTT0=
EXTT1=
EXTT2=
EXTT3=
EXTT4=
EXTT5=
EXTT6=
EXTT7=
EXTT8=
EXTT9=
EXTT10=
EXTT11=
EXTT12=
EXTT13=
EXTT14=
EXTT15=
PLAYORDER=
